<svg width="16" height="16" viewBox="0 0 16 16" fill="none" xmlns="http://www.w3.org/2000/svg">
<path d="M16 8.049C16 3.603 12.418 -0.000999451 7.99999 -0.000999451C3.57999 5.49364e-07 -0.00201416 3.603 -0.00201416 8.05C-0.00201416 12.067 2.92399 15.397 6.74799 16.001V10.376H4.71799V8.05H6.74999V6.275C6.74999 4.258 7.94499 3.144 9.77199 3.144C10.648 3.144 11.563 3.301 11.563 3.301V5.281H10.554C9.56099 5.281 9.25099 5.902 9.25099 6.539V8.049H11.469L11.115 10.375H9.24999V16C13.074 15.396 16 12.066 16 8.049Z" fill="#01012F"/>
</svg>
