<svg width="90" height="90" viewBox="0 0 90 90" fill="none" xmlns="http://www.w3.org/2000/svg">
<path d="M87.9991 45C88.0248 47.8398 87.4877 50.6565 86.4188 53.2875C85.3499 55.9185 83.7704 58.3117 81.7714 60.3289C79.7725 62.346 77.3937 63.9472 74.7725 65.0399C72.1513 66.1326 69.3395 66.6952 66.4997 66.6952C63.6598 66.6952 60.8481 66.1326 58.2269 65.0399C55.6057 63.9472 53.2269 62.346 51.2279 60.3289C49.229 58.3117 47.6494 55.9185 46.5805 53.2875C45.5116 50.6565 44.9745 47.8398 45.0003 45C44.9745 42.1603 45.5116 39.3436 46.5805 36.7126C47.6494 34.0816 49.229 31.6884 51.2279 29.6712C53.2269 27.6541 55.6057 26.0529 58.2269 24.9602C60.8481 23.8675 63.6598 23.3049 66.4997 23.3049C69.3395 23.3049 72.1513 23.8675 74.7725 24.9602C77.3937 26.0529 79.7725 27.6541 81.7714 29.6712C83.7704 31.6884 85.3499 34.0816 86.4188 36.7126C87.4877 39.3436 88.0248 42.1603 87.9991 45Z" stroke="#D4EAEE" stroke-width="4"/>
<path d="M77.2492 26.3764C77.2749 29.2161 76.7379 32.0328 75.669 34.6638C74.6 37.2948 73.0205 39.688 71.0215 41.7052C69.0226 43.7224 66.6438 45.3235 64.0226 46.4162C61.4014 47.5089 58.5897 48.0715 55.7498 48.0715C52.9099 48.0715 50.0982 47.5089 47.477 46.4162C44.8558 45.3235 42.477 43.7224 40.4781 41.7052C38.4791 39.688 36.8996 37.2948 35.8306 34.6638C34.7617 32.0328 34.2247 29.2161 34.2504 26.3764C34.2247 23.5366 34.7617 20.7199 35.8306 18.0889C36.8996 15.4579 38.4791 13.0647 40.4781 11.0476C42.477 9.0304 44.8558 7.42923 47.477 6.33652C50.0982 5.24381 52.9099 4.68121 55.7498 4.68121C58.5897 4.68121 61.4014 5.24381 64.0226 6.33652C66.6438 7.42923 69.0226 9.0304 71.0215 11.0476C73.0205 13.0647 74.6 15.4579 75.669 18.0889C76.7379 20.7199 77.2749 23.5366 77.2492 26.3764Z" stroke="#D4EAEE" stroke-width="4"/>
<path d="M55.7496 26.3764C55.7753 29.2161 55.2382 32.0328 54.1693 34.6638C53.1004 37.2948 51.5209 39.688 49.5219 41.7052C47.5229 43.7224 45.1442 45.3235 42.523 46.4162C39.9017 47.5089 37.09 48.0715 34.2502 48.0715C31.4103 48.0715 28.5986 47.5089 25.9774 46.4162C23.3562 45.3235 20.9774 43.7224 18.9784 41.7052C16.9795 39.688 15.3999 37.2948 14.331 34.6638C13.2621 32.0328 12.725 29.2161 12.7508 26.3764C12.725 23.5366 13.2621 20.7199 14.331 18.0889C15.3999 15.4579 16.9795 13.0647 18.9784 11.0476C20.9774 9.0304 23.3562 7.42923 25.9774 6.33652C28.5986 5.24381 31.4103 4.68121 34.2502 4.68121C37.09 4.68121 39.9017 5.24381 42.523 6.33652C45.1442 7.42923 47.5229 9.0304 49.5219 11.0476C51.5209 13.0647 53.1004 15.4579 54.1693 18.0889C55.2382 20.7199 55.7753 23.5366 55.7496 26.3764Z" stroke="#D4EAEE" stroke-width="4"/>
<path d="M44.9997 45C45.0254 47.8398 44.4883 50.6565 43.4194 53.2875C42.3505 55.9185 40.771 58.3117 38.772 60.3289C36.7731 62.346 34.3943 63.9472 31.7731 65.0399C29.1519 66.1326 26.3401 66.6952 23.5003 66.6952C20.6604 66.6952 17.8487 66.1326 15.2275 65.0399C12.6063 63.9472 10.2275 62.346 8.22854 60.3289C6.22958 58.3117 4.65004 55.9185 3.58114 53.2875C2.51223 50.6565 1.97514 47.8398 2.00088 45C1.97514 42.1603 2.51223 39.3436 3.58114 36.7126C4.65004 34.0816 6.22958 31.6884 8.22854 29.6712C10.2275 27.6541 12.6063 26.0529 15.2275 24.9602C17.8487 23.8675 20.6604 23.3049 23.5003 23.3049C26.3401 23.3049 29.1519 23.8675 31.7731 24.9602C34.3943 26.0529 36.7731 27.6541 38.772 29.6712C40.771 31.6884 42.3505 34.0816 43.4194 36.7126C44.4883 39.3436 45.0254 42.1603 44.9997 45Z" stroke="#D4EAEE" stroke-width="4"/>
<path d="M55.7496 63.6242C55.7753 66.4639 55.2382 69.2806 54.1693 71.9116C53.1004 74.5427 51.5209 76.9358 49.5219 78.953C47.5229 80.9702 45.1442 82.5713 42.523 83.664C39.9017 84.7567 37.09 85.3194 34.2502 85.3194C31.4103 85.3194 28.5986 84.7567 25.9774 83.664C23.3562 82.5713 20.9774 80.9702 18.9784 78.953C16.9795 76.9358 15.3999 74.5427 14.331 71.9116C13.2621 69.2806 12.725 66.4639 12.7508 63.6242C12.725 60.7844 13.2621 57.9677 14.331 55.3367C15.3999 52.7057 16.9795 50.3125 18.9784 48.2954C20.9774 46.2782 23.3562 44.677 25.9774 43.5843C28.5986 42.4916 31.4103 41.929 34.2502 41.929C37.09 41.929 39.9017 42.4916 42.523 43.5843C45.1442 44.677 47.5229 46.2782 49.5219 48.2954C51.5209 50.3125 53.1004 52.7057 54.1693 55.3367C55.2382 57.9677 55.7753 60.7844 55.7496 63.6242Z" stroke="#D4EAEE" stroke-width="4"/>
<path d="M77.2492 63.6242C77.2749 66.4639 76.7379 69.2806 75.669 71.9116C74.6 74.5427 73.0205 76.9358 71.0215 78.953C69.0226 80.9702 66.6438 82.5713 64.0226 83.664C61.4014 84.7567 58.5897 85.3194 55.7498 85.3194C52.9099 85.3194 50.0982 84.7567 47.477 83.664C44.8558 82.5713 42.477 80.9702 40.4781 78.953C38.4791 76.9358 36.8996 74.5427 35.8306 71.9116C34.7617 69.2806 34.2247 66.4639 34.2504 63.6242C34.2247 60.7844 34.7617 57.9677 35.8306 55.3367C36.8996 52.7057 38.4791 50.3125 40.4781 48.2954C42.477 46.2782 44.8558 44.677 47.477 43.5843C50.0982 42.4916 52.9099 41.929 55.7498 41.929C58.5897 41.929 61.4014 42.4916 64.0226 43.5843C66.6438 44.677 69.0226 46.2782 71.0215 48.2954C73.0205 50.3125 74.6 52.7057 75.669 55.3367C76.7379 57.9677 77.2749 60.7844 77.2492 63.6242Z" stroke="#D4EAEE" stroke-width="4"/>
<path d="M44.9979 87.9991C42.1582 88.0249 39.3415 87.4878 36.7105 86.4189C34.0795 85.35 31.6863 83.7704 29.6691 81.7715C27.652 79.7725 26.0508 77.3937 24.9581 74.7725C23.8654 72.1513 23.3028 69.3396 23.3028 66.4997C23.3028 63.6598 23.8654 60.8481 24.9581 58.2269C26.0508 55.6057 27.652 53.2269 29.6691 51.228C31.6863 49.229 34.0795 47.6495 36.7105 46.5806C39.3415 45.5117 42.1582 44.9746 44.9979 45.0003C47.8377 44.9746 50.6544 45.5117 53.2854 46.5806C55.9164 47.6495 58.3096 49.229 60.3268 51.228C62.3439 53.2269 63.9451 55.6057 65.0378 58.2269C66.1305 60.8481 66.6931 63.6598 66.6931 66.4997C66.6931 69.3396 66.1305 72.1513 65.0378 74.7725C63.9451 77.3937 62.3439 79.7725 60.3268 81.7715C58.3096 83.7704 55.9164 85.35 53.2854 86.4189C50.6544 87.4878 47.8377 88.0249 44.9979 87.9991Z" stroke="#D4EAEE" stroke-width="4"/>
<path d="M63.6216 77.2492C60.7819 77.2749 57.9652 76.7379 55.3341 75.669C52.7031 74.6 50.3099 73.0205 48.2928 71.0215C46.2756 69.0226 44.6745 66.6438 43.5817 64.0226C42.489 61.4014 41.9264 58.5897 41.9264 55.7498C41.9264 52.9099 42.489 50.0982 43.5817 47.477C44.6745 44.8558 46.2756 42.477 48.2928 40.4781C50.3099 38.4791 52.7031 36.8996 55.3341 35.8306C57.9652 34.7617 60.7819 34.2247 63.6216 34.2504C66.4613 34.2247 69.2781 34.7617 71.9091 35.8306C74.5401 36.8996 76.9333 38.4791 78.9504 40.4781C80.9676 42.477 82.5688 44.8558 83.6615 47.477C84.7542 50.0982 85.3168 52.9099 85.3168 55.7498C85.3168 58.5897 84.7542 61.4014 83.6615 64.0226C82.5688 66.6438 80.9676 69.0226 78.9504 71.0215C76.9333 73.0205 74.5401 74.6 71.9091 75.669C69.2781 76.7379 66.4613 77.2749 63.6216 77.2492Z" stroke="#D4EAEE" stroke-width="4"/>
<path d="M63.6216 55.7496C60.7819 55.7753 57.9652 55.2383 55.3341 54.1693C52.7031 53.1004 50.3099 51.5209 48.2928 49.5219C46.2756 47.523 44.6745 45.1442 43.5817 42.523C42.489 39.9018 41.9264 37.0901 41.9264 34.2502C41.9264 31.4103 42.489 28.5986 43.5817 25.9774C44.6745 23.3562 46.2756 20.9774 48.2928 18.9785C50.3099 16.9795 52.7031 15.4 55.3341 14.331C57.9652 13.2621 60.7819 12.7251 63.6216 12.7508C66.4613 12.7251 69.2781 13.2621 71.9091 14.331C74.5401 15.4 76.9333 16.9795 78.9504 18.9785C80.9676 20.9774 82.5688 23.3562 83.6615 25.9774C84.7542 28.5986 85.3168 31.4103 85.3168 34.2502C85.3168 37.0901 84.7542 39.9018 83.6615 42.523C82.5688 45.1442 80.9676 47.523 78.9504 49.5219C76.9333 51.5209 74.5401 53.1004 71.9091 54.1693C69.2781 55.2383 66.4613 55.7753 63.6216 55.7496Z" stroke="#D4EAEE" stroke-width="4"/>
<path d="M44.9979 44.9997C42.1582 45.0254 39.3415 44.4883 36.7105 43.4194C34.0795 42.3505 31.6863 40.771 29.6691 38.772C27.652 36.7731 26.0508 34.3943 24.9581 31.7731C23.8654 29.1519 23.3028 26.3401 23.3028 23.5003C23.3028 20.6604 23.8654 17.8487 24.9581 15.2275C26.0508 12.6063 27.652 10.2275 29.6691 8.22854C31.6863 6.22958 34.0795 4.65004 36.7105 3.58114C39.3415 2.51223 42.1582 1.97514 44.9979 2.00088C47.8377 1.97514 50.6544 2.51223 53.2854 3.58114C55.9164 4.65004 58.3096 6.22958 60.3268 8.22854C62.3439 10.2275 63.9451 12.6063 65.0378 15.2275C66.1305 17.8487 66.6931 20.6604 66.6931 23.5003C66.6931 26.3401 66.1305 29.1519 65.0378 31.7731C63.9451 34.3943 62.3439 36.7731 60.3268 38.772C58.3096 40.771 55.9164 42.3505 53.2854 43.4194C50.6544 44.4883 47.8377 45.0254 44.9979 44.9997Z" stroke="#D4EAEE" stroke-width="4"/>
<path d="M26.3738 55.7496C23.5341 55.7753 20.7174 55.2383 18.0863 54.1693C15.4553 53.1004 13.0621 51.5209 11.045 49.5219C9.02782 47.523 7.42666 45.1442 6.33395 42.523C5.24124 39.9018 4.67864 37.0901 4.67864 34.2502C4.67864 31.4103 5.24124 28.5986 6.33395 25.9774C7.42666 23.3562 9.02782 20.9774 11.045 18.9785C13.0621 16.9795 15.4553 15.4 18.0863 14.331C20.7174 13.2621 23.5341 12.7251 26.3738 12.7508C29.2135 12.7251 32.0302 13.2621 34.6613 14.331C37.2923 15.4 39.6855 16.9795 41.7026 18.9785C43.7198 20.9774 45.321 23.3562 46.4137 25.9774C47.5064 28.5986 48.069 31.4103 48.069 34.2502C48.069 37.0901 47.5064 39.9018 46.4137 42.523C45.321 45.1442 43.7198 47.523 41.7026 49.5219C39.6855 51.5209 37.2923 53.1004 34.6613 54.1693C32.0302 55.2383 29.2135 55.7753 26.3738 55.7496Z" stroke="#D4EAEE" stroke-width="4"/>
<path d="M26.3738 77.2492C23.5341 77.2749 20.7174 76.7379 18.0863 75.669C15.4553 74.6 13.0621 73.0205 11.045 71.0215C9.02782 69.0226 7.42666 66.6438 6.33395 64.0226C5.24124 61.4014 4.67864 58.5897 4.67864 55.7498C4.67864 52.9099 5.24124 50.0982 6.33395 47.477C7.42666 44.8558 9.02782 42.477 11.045 40.4781C13.0621 38.4791 15.4553 36.8996 18.0863 35.8306C20.7174 34.7617 23.5341 34.2247 26.3738 34.2504C29.2135 34.2247 32.0302 34.7617 34.6613 35.8306C37.2923 36.8996 39.6855 38.4791 41.7026 40.4781C43.7198 42.477 45.321 44.8558 46.4137 47.477C47.5064 50.0982 48.069 52.9099 48.069 55.7498C48.069 58.5897 47.5064 61.4014 46.4137 64.0226C45.321 66.6438 43.7198 69.0226 41.7026 71.0215C39.6855 73.0205 37.2923 74.6 34.6613 75.669C32.0302 76.7379 29.2135 77.2749 26.3738 77.2492Z" stroke="#D4EAEE" stroke-width="4"/>
<path d="M66.4975 44.9983C66.5233 47.8379 65.9862 50.6545 64.9173 53.2855C63.8484 55.9164 62.269 58.3095 60.2701 60.3266C58.2712 62.3437 55.8925 63.9448 53.2713 65.0375C50.6502 66.1302 47.8385 66.6928 44.9988 66.6928C42.159 66.6928 39.3474 66.1302 36.7262 65.0375C34.1051 63.9448 31.7264 62.3437 29.7275 60.3266C27.7286 58.3095 26.1491 55.9164 25.0802 53.2855C24.0114 50.6545 23.4743 47.8379 23.5 44.9983C23.4743 42.1586 24.0114 39.342 25.0802 36.7111C26.1491 34.0801 27.7286 31.687 29.7275 29.6699C31.7264 27.6528 34.1051 26.0517 36.7262 24.959C39.3474 23.8664 42.159 23.3038 44.9988 23.3038C47.8385 23.3038 50.6502 23.8664 53.2713 24.959C55.8925 26.0517 58.2712 27.6528 60.2701 29.6699C62.269 31.687 63.8484 34.0801 64.9173 36.7111C65.9862 39.342 66.5233 42.1586 66.4975 44.9983Z" stroke="#D4EAEE" stroke-width="4"/>
</svg>
