<svg width="133" height="133" viewBox="0 0 133 133" fill="none" xmlns="http://www.w3.org/2000/svg">
<path d="M130.999 66.5C131.037 70.7596 130.232 74.9847 128.628 78.9312C127.025 82.8777 124.656 86.4675 121.657 89.4933C118.659 92.519 115.091 94.9207 111.159 96.5598C107.227 98.1989 103.009 99.0428 98.7496 99.0428C94.4898 99.0428 90.2722 98.1989 86.3404 96.5598C82.4086 94.9207 78.8404 92.519 75.842 89.4933C72.8435 86.4675 70.4742 82.8777 68.8709 78.9312C67.2675 74.9847 66.4619 70.7596 66.5005 66.5C66.4619 62.2404 67.2675 58.0154 68.8709 54.0688C70.4742 50.1223 72.8435 46.5325 75.842 43.5068C78.8404 40.4811 82.4086 38.0793 86.3404 36.4402C90.2722 34.8012 94.4898 33.9573 98.7496 33.9573C103.009 33.9573 107.227 34.8012 111.159 36.4402C115.091 38.0793 118.659 40.4811 121.657 43.5068C124.656 46.5325 127.025 50.1223 128.628 54.0688C130.232 58.0154 131.037 62.2404 130.999 66.5Z" stroke="white" stroke-width="4"/>
<path d="M114.874 38.5645C114.912 42.8241 114.107 47.0492 112.503 50.9957C110.9 54.9422 108.531 58.532 105.532 61.5578C102.534 64.5835 98.9657 66.9853 95.0339 68.6243C91.1021 70.2634 86.8845 71.1073 82.6247 71.1073C78.3649 71.1073 74.1473 70.2634 70.2155 68.6243C66.2837 66.9853 62.7155 64.5835 59.7171 61.5578C56.7186 58.532 54.3493 54.9422 52.746 50.9957C51.1426 47.0492 50.337 42.8241 50.3756 38.5645C50.337 34.3049 51.1426 30.0799 52.746 26.1334C54.3493 22.1868 56.7186 18.5971 59.7171 15.5713C62.7155 12.5456 66.2837 10.1438 70.2155 8.50475C74.1473 6.86569 78.3649 6.02179 82.6247 6.02179C86.8845 6.02179 91.1021 6.86569 95.0339 8.50475C98.9657 10.1438 102.534 12.5456 105.532 15.5713C108.531 18.5971 110.9 22.1868 112.503 26.1334C114.107 30.0799 114.912 34.3049 114.874 38.5645Z" stroke="white" stroke-width="4"/>
<path d="M82.6244 38.5645C82.663 42.8241 81.8574 47.0492 80.254 50.9957C78.6507 54.9422 76.2814 58.532 73.2829 61.5578C70.2845 64.5835 66.7163 66.9853 62.7845 68.6243C58.8527 70.2634 54.6351 71.1073 50.3753 71.1073C46.1155 71.1073 41.8979 70.2634 37.9661 68.6243C34.0343 66.9853 30.4661 64.5835 27.4677 61.5578C24.4693 58.532 22.0999 54.9422 20.4966 50.9957C18.8932 47.0492 18.0876 42.8241 18.1262 38.5645C18.0876 34.3049 18.8932 30.0799 20.4966 26.1334C22.0999 22.1868 24.4693 18.5971 27.4677 15.5713C30.4661 12.5456 34.0343 10.1438 37.9661 8.50475C41.8979 6.86569 46.1155 6.02179 50.3753 6.02179C54.6351 6.02179 58.8527 6.86569 62.7845 8.50475C66.7163 10.1438 70.2845 12.5456 73.2829 15.5713C76.2814 18.5971 78.6507 22.1868 80.254 26.1334C81.8574 30.0799 82.663 34.3049 82.6244 38.5645Z" stroke="white" stroke-width="4"/>
<path d="M66.4995 66.5C66.5382 70.7596 65.7325 74.9847 64.1292 78.9312C62.5258 82.8777 60.1565 86.4675 57.158 89.4933C54.1596 92.519 50.5914 94.9207 46.6596 96.5598C42.7278 98.1989 38.5102 99.0428 34.2504 99.0428C29.9906 99.0428 25.7731 98.1989 21.8412 96.5598C17.9094 94.9207 14.3413 92.519 11.3428 89.4933C8.34437 86.4675 5.97506 82.8777 4.37171 78.9312C2.76835 74.9847 1.96271 70.7596 2.00132 66.5C1.96271 62.2404 2.76835 58.0154 4.37171 54.0688C5.97506 50.1223 8.34437 46.5325 11.3428 43.5068C14.3413 40.4811 17.9094 38.0793 21.8412 36.4402C25.7731 34.8012 29.9906 33.9573 34.2504 33.9573C38.5102 33.9573 42.7278 34.8012 46.6596 36.4402C50.5914 38.0793 54.1596 40.4811 57.158 43.5068C60.1565 46.5325 62.5258 50.1223 64.1292 54.0688C65.7325 58.0154 66.5382 62.2404 66.4995 66.5Z" stroke="white" stroke-width="4"/>
<path d="M82.6244 94.4362C82.663 98.6959 81.8574 102.921 80.254 106.867C78.6507 110.814 76.2814 114.404 73.2829 117.429C70.2845 120.455 66.7163 122.857 62.7845 124.496C58.8527 126.135 54.6351 126.979 50.3753 126.979C46.1155 126.979 41.8979 126.135 37.9661 124.496C34.0343 122.857 30.4661 120.455 27.4677 117.429C24.4693 114.404 22.0999 110.814 20.4966 106.867C18.8932 102.921 18.0876 98.6959 18.1262 94.4362C18.0876 90.1766 18.8932 85.9516 20.4966 82.0051C22.0999 78.0585 24.4693 74.4688 27.4677 71.443C30.4661 68.4173 34.0343 66.0155 37.9661 64.3765C41.8979 62.7374 46.1155 61.8935 50.3753 61.8935C54.6351 61.8935 58.8527 62.7374 62.7845 64.3765C66.7163 66.0155 70.2845 68.4173 73.2829 71.443C76.2814 74.4688 78.6507 78.0585 80.254 82.0051C81.8574 85.9516 82.663 90.1766 82.6244 94.4362Z" stroke="white" stroke-width="4"/>
<path d="M114.874 94.4362C114.912 98.6959 114.107 102.921 112.503 106.867C110.9 110.814 108.531 114.404 105.532 117.429C102.534 120.455 98.9657 122.857 95.0339 124.496C91.1021 126.135 86.8845 126.979 82.6247 126.979C78.3649 126.979 74.1473 126.135 70.2155 124.496C66.2837 122.857 62.7155 120.455 59.7171 117.429C56.7186 114.404 54.3493 110.814 52.746 106.867C51.1426 102.921 50.337 98.6959 50.3756 94.4362C50.337 90.1766 51.1426 85.9516 52.746 82.0051C54.3493 78.0585 56.7186 74.4688 59.7171 71.443C62.7155 68.4173 66.2837 66.0155 70.2155 64.3765C74.1473 62.7374 78.3649 61.8935 82.6247 61.8935C86.8845 61.8935 91.1021 62.7374 95.0339 64.3765C98.9657 66.0155 102.534 68.4173 105.532 71.443C108.531 74.4688 110.9 78.0585 112.503 82.0051C114.107 85.9516 114.912 90.1766 114.874 94.4362Z" stroke="white" stroke-width="4"/>
<path d="M66.4969 130.999C62.2373 131.037 58.0123 130.232 54.0657 128.628C50.1192 127.025 46.5294 124.656 43.5037 121.657C40.478 118.659 38.0762 115.091 36.4371 111.159C34.7981 107.227 33.9542 103.009 33.9542 98.7496C33.9542 94.4898 34.7981 90.2722 36.4371 86.3404C38.0762 82.4086 40.478 78.8404 43.5037 75.842C46.5294 72.8435 50.1192 70.4742 54.0657 68.8709C58.0123 67.2675 62.2373 66.4619 66.4969 66.5005C70.7565 66.4619 74.9816 67.2675 78.9281 68.8709C82.8746 70.4742 86.4644 72.8435 89.4902 75.842C92.5159 78.8404 94.9176 82.4086 96.5567 86.3404C98.1958 90.2722 99.0397 94.4898 99.0397 98.7496C99.0397 103.009 98.1958 107.227 96.5567 111.159C94.9176 115.091 92.5159 118.659 89.4902 121.657C86.4644 124.656 82.8746 127.025 78.9281 128.628C74.9816 130.232 70.7565 131.037 66.4969 130.999Z" stroke="white" stroke-width="4"/>
<path d="M94.4325 114.874C90.1729 114.912 85.9478 114.107 82.0013 112.503C78.0548 110.9 74.465 108.531 71.4392 105.532C68.4135 102.534 66.0118 98.9657 64.3727 95.0339C62.7336 91.1021 61.8897 86.8845 61.8897 82.6247C61.8897 78.3649 62.7336 74.1473 64.3727 70.2155C66.0118 66.2837 68.4135 62.7155 71.4392 59.7171C74.465 56.7186 78.0548 54.3493 82.0013 52.746C85.9478 51.1426 90.1729 50.337 94.4325 50.3756C98.6921 50.337 102.917 51.1426 106.864 52.746C110.81 54.3493 114.4 56.7186 117.426 59.7171C120.451 62.7155 122.853 66.2837 124.492 70.2155C126.131 74.1473 126.975 78.3649 126.975 82.6247C126.975 86.8845 126.131 91.1021 124.492 95.0339C122.853 98.9657 120.451 102.534 117.426 105.532C114.4 108.531 110.81 110.9 106.864 112.503C102.917 114.107 98.6921 114.912 94.4325 114.874Z" stroke="white" stroke-width="4"/>
<path d="M94.4325 82.6244C90.1729 82.663 85.9478 81.8574 82.0013 80.254C78.0548 78.6507 74.465 76.2814 71.4392 73.2829C68.4135 70.2845 66.0118 66.7163 64.3727 62.7845C62.7336 58.8527 61.8897 54.6351 61.8897 50.3753C61.8897 46.1155 62.7336 41.8979 64.3727 37.9661C66.0118 34.0343 68.4135 30.4661 71.4392 27.4677C74.465 24.4693 78.0548 22.0999 82.0013 20.4966C85.9478 18.8932 90.1729 18.0876 94.4325 18.1262C98.6921 18.0876 102.917 18.8932 106.864 20.4966C110.81 22.0999 114.4 24.4693 117.426 27.4677C120.451 30.4661 122.853 34.0343 124.492 37.9661C126.131 41.8979 126.975 46.1155 126.975 50.3753C126.975 54.6351 126.131 58.8527 124.492 62.7845C122.853 66.7163 120.451 70.2845 117.426 73.2829C114.4 76.2814 110.81 78.6507 106.864 80.254C102.917 81.8574 98.6921 82.663 94.4325 82.6244Z" stroke="white" stroke-width="4"/>
<path d="M66.4969 66.4995C62.2373 66.5382 58.0123 65.7325 54.0657 64.1292C50.1192 62.5258 46.5294 60.1565 43.5037 57.158C40.478 54.1596 38.0762 50.5914 36.4371 46.6596C34.7981 42.7278 33.9542 38.5102 33.9542 34.2504C33.9542 29.9906 34.7981 25.7731 36.4371 21.8412C38.0762 17.9094 40.478 14.3413 43.5037 11.3428C46.5294 8.34437 50.1192 5.97506 54.0657 4.37171C58.0123 2.76835 62.2373 1.96271 66.4969 2.00132C70.7565 1.96271 74.9816 2.76835 78.9281 4.37171C82.8746 5.97506 86.4644 8.34437 89.4902 11.3428C92.5159 14.3413 94.9176 17.9094 96.5567 21.8412C98.1958 25.7731 99.0397 29.9906 99.0397 34.2504C99.0397 38.5102 98.1958 42.7278 96.5567 46.6596C94.9176 50.5914 92.5159 54.1596 89.4902 57.158C86.4644 60.1565 82.8746 62.5258 78.9281 64.1292C74.9816 65.7325 70.7565 66.5382 66.4969 66.4995Z" stroke="white" stroke-width="4"/>
<path d="M38.5608 82.6244C34.3012 82.663 30.0762 81.8574 26.1296 80.254C22.1831 78.6507 18.5933 76.2814 15.5676 73.2829C12.5419 70.2845 10.1401 66.7163 8.50104 62.7845C6.86198 58.8527 6.01808 54.6351 6.01808 50.3753C6.01808 46.1155 6.86198 41.8979 8.50104 37.9661C10.1401 34.0343 12.5419 30.4661 15.5676 27.4677C18.5933 24.4693 22.1831 22.0999 26.1296 20.4966C30.0762 18.8932 34.3012 18.0876 38.5608 18.1262C42.8204 18.0876 47.0455 18.8932 50.992 20.4966C54.9385 22.0999 58.5283 24.4693 61.5541 27.4677C64.5798 30.4661 66.9816 34.0343 68.6206 37.9661C70.2597 41.8979 71.1036 46.1155 71.1036 50.3753C71.1036 54.6351 70.2597 58.8527 68.6206 62.7845C66.9816 66.7163 64.5798 70.2845 61.5541 73.2829C58.5283 76.2814 54.9385 78.6507 50.992 80.254C47.0455 81.8574 42.8204 82.663 38.5608 82.6244Z" stroke="white" stroke-width="4"/>
<path d="M38.5608 114.874C34.3012 114.912 30.0762 114.107 26.1296 112.503C22.1831 110.9 18.5933 108.531 15.5676 105.532C12.5419 102.534 10.1401 98.9657 8.50104 95.0339C6.86198 91.1021 6.01808 86.8845 6.01808 82.6247C6.01808 78.3649 6.86198 74.1473 8.50104 70.2155C10.1401 66.2837 12.5419 62.7155 15.5676 59.7171C18.5933 56.7186 22.1831 54.3493 26.1296 52.746C30.0762 51.1426 34.3012 50.337 38.5608 50.3756C42.8204 50.337 47.0455 51.1426 50.992 52.746C54.9385 54.3493 58.5283 56.7186 61.5541 59.7171C64.5798 62.7155 66.9816 66.2837 68.6206 70.2155C70.2597 74.1473 71.1036 78.3649 71.1036 82.6247C71.1036 86.8845 70.2597 91.1021 68.6206 95.0339C66.9816 98.9657 64.5798 102.534 61.5541 105.532C58.5283 108.531 54.9385 110.9 50.992 112.503C47.0455 114.107 42.8204 114.912 38.5608 114.874Z" stroke="white" stroke-width="4"/>
<path d="M98.7464 66.4974C98.785 70.7569 97.9793 74.9818 96.376 78.9282C94.7727 82.8746 92.4035 86.4643 89.4051 89.4899C86.4068 92.5156 82.8387 94.9172 78.907 96.5562C74.9753 98.1953 70.7579 99.0391 66.4982 99.0391C62.2386 99.0391 58.0211 98.1953 54.0894 96.5562C50.1577 94.9172 46.5897 92.5156 43.5913 89.4899C40.593 86.4643 38.2237 82.8746 36.6204 78.9282C35.0171 74.9818 34.2115 70.7569 34.2501 66.4974C34.2115 62.2379 35.0171 58.013 36.6204 54.0666C38.2237 50.1202 40.593 46.5305 43.5913 43.5049C46.5897 40.4792 50.1577 38.0775 54.0894 36.4385C58.0211 34.7995 62.2386 33.9556 66.4982 33.9556C70.7579 33.9556 74.9753 34.7995 78.907 36.4385C82.8387 38.0775 86.4068 40.4792 89.4051 43.5049C92.4035 46.5305 94.7727 50.1202 96.376 54.0666C97.9793 58.013 98.785 62.2379 98.7464 66.4974Z" stroke="white" stroke-width="4"/>
</svg>
