<svg width="531" height="119" viewBox="0 0 531 119" fill="none" xmlns="http://www.w3.org/2000/svg">
<path d="M7.73438 86.8906H9.53125C9.89583 93.5573 12.5781 99.0521 17.5781 103.375C22.474 107.646 28.099 109.781 34.4531 109.781C39.349 109.781 43.3333 108.401 46.4062 105.641C49.4792 102.88 51.0156 99.5729 51.0156 95.7188C51.0156 91.6562 49.5312 88.5052 46.5625 86.2656C43.6979 84.0781 38.0469 81.6042 29.6094 78.8438C22.8385 76.6042 18.0208 74.7552 15.1562 73.2969C11.8229 71.5781 9.21875 69.2604 7.34375 66.3438C5.3125 63.375 4.29688 60.0417 4.29688 56.3438C4.29688 52.2292 5.67708 48.1927 8.4375 44.2344C7.8125 46.2656 7.5 48.0365 7.5 49.5469C7.5 53.6094 8.46354 57.1771 10.3906 60.25C12.3698 63.4271 14.8177 65.8229 17.7344 67.4375C20.651 69.1042 25.5208 71.0052 32.3438 73.1406C41.25 75.849 47.6823 78.8438 51.6406 82.125C55.4427 85.3021 57.3438 89.5729 57.3438 94.9375C57.3438 100.198 55.3646 104.964 51.4062 109.234C47.3958 113.557 41.4062 115.719 33.4375 115.719C30.2083 115.719 25.7292 115.12 20 113.922C15 112.88 11.25 112.333 8.75 112.281L8.20312 111.656C8.25521 110.771 8.28125 109.625 8.28125 108.219C8.28125 106.552 8.125 103.974 7.8125 100.484C7.55208 96.9948 7.42188 94.3906 7.42188 92.6719C7.42188 90.4323 7.52604 88.5052 7.73438 86.8906ZM62.8906 54.2344H61.25C61.1979 48.1927 58.8021 43.7135 54.0625 40.7969C49.4271 37.9323 43.8021 36.5 37.1875 36.5C31.9271 36.5 27.6042 37.6198 24.2188 39.8594C20.7812 42.099 19.0625 44.7812 19.0625 47.9062C19.0625 51.2396 20.4167 53.8698 23.125 55.7969C25.9375 57.8802 31.4844 60.3542 39.7656 63.2188C47.474 65.875 52.8646 68.0365 55.9375 69.7031C59.2188 71.526 61.9531 74.1302 64.1406 77.5156C66.3281 81.0052 67.4219 84.8854 67.4219 89.1562C67.4219 95.6667 65.026 100.771 60.2344 104.469C62.0052 102.021 62.8906 98.5833 62.8906 94.1562C62.8906 89.9896 61.9271 86.2917 60 83.0625C57.9688 79.7812 55.4688 77.1771 52.5 75.25C49.4792 73.2708 44.5573 71.1615 37.7344 68.9219C27.474 65.5365 20.7812 62.6458 17.6562 60.25C14.5312 57.8021 12.9688 54 12.9688 48.8438C12.9688 42.9062 15.3646 38.2448 20.1562 34.8594C24.9479 31.5781 31.7448 29.9375 40.5469 29.9375C46.5365 29.9375 53.8542 30.9792 62.5 33.0625V33.6094L62.6562 36.5781C62.6562 38.1406 62.7083 40.0156 62.8125 42.2031C62.9688 44.8594 63.0469 47.2031 63.0469 49.2344C63.0469 50.5885 62.9948 52.2552 62.8906 54.2344ZM154.844 105.953C160.521 98.2448 163.359 86.6302 163.359 71.1094C163.359 57.4115 160.547 46.7344 154.922 39.0781C165.651 45.4844 171.016 56.4479 171.016 71.9688C171.016 87.2812 165.625 98.6094 154.844 105.953ZM91.875 39C86.1458 47.8542 83.2812 59.1823 83.2812 72.9844C83.2812 85.4844 86.0156 96.3177 91.4844 105.484C80.9635 98.5573 75.7031 87.4635 75.7031 72.2031C75.7031 56.526 81.0938 45.4583 91.875 39ZM150.312 72.5156C150.312 47.5677 141.25 35.0938 123.125 35.0938C105.365 35.0938 96.4844 47.8802 96.4844 73.4531C96.4844 97.5156 105.469 109.547 123.438 109.547C141.354 109.547 150.312 97.2031 150.312 72.5156ZM157.656 72.4375C157.656 82.0208 156.198 90.1198 153.281 96.7344C150.417 103.297 146.38 108.141 141.172 111.266C136.068 114.443 130.104 116.031 123.281 116.031C112.448 116.031 104.062 112.151 98.125 104.391C92.1875 96.6302 89.2188 85.9531 89.2188 72.3594C89.2188 58.2448 92.2396 47.4115 98.2812 39.8594C104.323 32.4115 112.604 28.6875 123.125 28.6875C133.802 28.6875 142.24 32.4115 148.438 39.8594C154.583 47.2552 157.656 58.1146 157.656 72.4375ZM206.25 114H203.125V31.6562H222.5C228.125 31.6562 235.547 31.3438 244.766 30.7188C244.714 32.0729 244.688 33.8438 244.688 36.0312C244.688 37.2812 244.766 39.625 244.922 43.0625C245.078 46.8646 245.156 48.8438 245.156 49V51.0312H243.516C242.057 41.6562 237.63 36.9688 230.234 36.9688H215.078C213.359 36.9688 211.823 37.2031 210.469 37.6719C209.792 41.7865 209.453 47.2812 209.453 54.1562V70.3281H223.125C229.01 70.3281 233.307 69.599 236.016 68.1406C238.672 66.7344 240.391 64.2083 241.172 60.5625H242.891C242.526 66.1875 242.344 70.0677 242.344 72.2031C242.344 73.5052 242.422 75.7188 242.578 78.8438C242.786 81.8125 242.891 83.9479 242.891 85.25V87.8281H241.172C240.911 79.599 236.51 75.4844 227.969 75.4844H209.453V93.6094C209.453 105.38 213.047 112.021 220.234 113.531V114.938C212.839 114.312 208.177 114 206.25 114ZM197.109 31.6562V114C192.526 114 187.057 114.312 180.703 114.938V113.531C184.297 112.438 186.875 110.224 188.438 106.891C190 103.609 190.781 98.2448 190.781 90.7969V52.2031C190.781 45.1198 189.844 40.1719 187.969 37.3594C186.042 34.599 183.62 32.8802 180.703 32.2031V30.7188C186.276 31.1875 191.745 31.5 197.109 31.6562ZM278.984 114V31.6562C285.443 31.6562 291.172 31.3438 296.172 30.7188V32.125C293.099 32.6979 290.547 34.3646 288.516 37.125C286.432 39.9896 285.391 45.901 285.391 54.8594V92.125C285.391 100.146 286.484 105.536 288.672 108.297C290.859 111.057 293.359 112.802 296.172 113.531V114.938C291.276 114.312 285.547 114 278.984 114ZM273.125 31.6562V114C269.375 114 263.672 114.312 256.016 114.938V113.531C260.026 112.49 262.812 110.224 264.375 106.734C265.938 103.297 266.719 97.0729 266.719 88.0625V53.1406C266.719 46.3698 265.911 41.3958 264.297 38.2188C262.682 35.0938 259.922 33.0625 256.016 32.125V30.7188C262.37 31.2396 268.073 31.5521 273.125 31.6562ZM394.531 114L355.078 31.6562H362.734C363.776 34.3646 365.234 37.776 367.109 41.8906C369.193 46.3177 370.365 48.9479 370.625 49.7812C370.885 50.25 371.12 50.7969 371.328 51.4219L389.688 89.4688C396.094 102.698 402.917 110.719 410.156 113.531V114.938C403.073 114.312 397.865 114 394.531 114ZM338.75 74.7031H362.344L351.016 50.9531L338.75 74.7031ZM372.109 95.0938L365.156 80.5625H335.703L328.281 95.0938C328.281 95.0938 328.151 95.4323 327.891 96.1094C327.839 96.1615 327.448 96.9167 326.719 98.375C325.625 100.562 325.078 102.802 325.078 105.094C325.078 109.052 327.266 111.865 331.641 113.531V114.938C330.755 114.938 329.219 114.807 327.031 114.547C323.958 114.182 321.198 114 318.75 114C316.51 114 313.75 114.182 310.469 114.547C308.229 114.807 306.745 114.938 306.016 114.938V113.531C311.745 110.615 316.953 104.599 321.641 95.4844L347.578 45.0156C345.599 41.0052 342.865 37.9062 339.375 35.7188C335.938 33.5312 331.901 32.3333 327.266 32.125V30.7188H330C332.448 30.7188 335.807 30.875 340.078 31.1875C344.557 31.5 347.474 31.6562 348.828 31.6562L388.281 114C383.229 114.104 377.161 114.417 370.078 114.938V113.531C374.036 112.854 376.016 110.719 376.016 107.125C376.016 104.469 374.714 100.458 372.109 95.0938Z" fill="#01012F"/>
<path d="M528.999 74C529.025 76.8398 528.488 79.6565 527.419 82.2875C526.35 84.9185 524.77 87.3117 522.771 89.3289C520.772 91.346 518.394 92.9472 515.772 94.0399C513.151 95.1326 510.34 95.6952 507.5 95.6952C504.66 95.6952 501.848 95.1326 499.227 94.0399C496.606 92.9472 494.227 91.346 492.228 89.3289C490.229 87.3117 488.649 84.9185 487.581 82.2875C486.512 79.6565 485.975 76.8398 486 74C485.975 71.1603 486.512 68.3436 487.581 65.7126C488.649 63.0816 490.229 60.6884 492.228 58.6712C494.227 56.6541 496.606 55.0529 499.227 53.9602C501.848 52.8675 504.66 52.3049 507.5 52.3049C510.34 52.3049 513.151 52.8675 515.772 53.9602C518.394 55.0529 520.772 56.6541 522.771 58.6712C524.77 60.6884 526.35 63.0816 527.419 65.7126C528.488 68.3436 529.025 71.1603 528.999 74Z" stroke="#01012F" stroke-width="4"/>
<path d="M518.249 55.3764C518.275 58.2161 517.738 61.0328 516.669 63.6638C515.6 66.2948 514.021 68.688 512.022 70.7052C510.023 72.7224 507.644 74.3235 505.023 75.4162C502.401 76.5089 499.59 77.0715 496.75 77.0715C493.91 77.0715 491.098 76.5089 488.477 75.4162C485.856 74.3235 483.477 72.7224 481.478 70.7052C479.479 68.688 477.9 66.2948 476.831 63.6638C475.762 61.0328 475.225 58.2161 475.25 55.3764C475.225 52.5366 475.762 49.7199 476.831 47.0889C477.9 44.4579 479.479 42.0647 481.478 40.0476C483.477 38.0304 485.856 36.4292 488.477 35.3365C491.098 34.2438 493.91 33.6812 496.75 33.6812C499.59 33.6812 502.401 34.2438 505.023 35.3365C507.644 36.4292 510.023 38.0304 512.022 40.0476C514.021 42.0647 515.6 44.4579 516.669 47.0889C517.738 49.7199 518.275 52.5366 518.249 55.3764Z" stroke="#01012F" stroke-width="4"/>
<path d="M496.75 55.3764C496.775 58.2161 496.238 61.0328 495.169 63.6638C494.1 66.2948 492.521 68.688 490.522 70.7052C488.523 72.7224 486.144 74.3235 483.523 75.4162C480.902 76.5089 478.09 77.0715 475.25 77.0715C472.41 77.0715 469.599 76.5089 466.977 75.4162C464.356 74.3235 461.977 72.7224 459.978 70.7052C457.98 68.688 456.4 66.2948 455.331 63.6638C454.262 61.0328 453.725 58.2161 453.751 55.3764C453.725 52.5366 454.262 49.7199 455.331 47.0889C456.4 44.4579 457.98 42.0647 459.978 40.0476C461.977 38.0304 464.356 36.4292 466.977 35.3365C469.599 34.2438 472.41 33.6812 475.25 33.6812C478.09 33.6812 480.902 34.2438 483.523 35.3365C486.144 36.4292 488.523 38.0304 490.522 40.0476C492.521 42.0647 494.1 44.4579 495.169 47.0889C496.238 49.7199 496.775 52.5366 496.75 55.3764Z" stroke="#01012F" stroke-width="4"/>
<path d="M486 74C486.025 76.8398 485.488 79.6565 484.419 82.2875C483.351 84.9185 481.771 87.3117 479.772 89.3289C477.773 91.346 475.394 92.9472 472.773 94.0399C470.152 95.1326 467.34 95.6952 464.5 95.6952C461.66 95.6952 458.849 95.1326 456.227 94.0399C453.606 92.9472 451.228 91.346 449.229 89.3289C447.23 87.3117 445.65 84.9185 444.581 82.2875C443.512 79.6565 442.975 76.8398 443.001 74C442.975 71.1603 443.512 68.3436 444.581 65.7126C445.65 63.0816 447.23 60.6884 449.229 58.6712C451.228 56.6541 453.606 55.0529 456.227 53.9602C458.849 52.8675 461.66 52.3049 464.5 52.3049C467.34 52.3049 470.152 52.8675 472.773 53.9602C475.394 55.0529 477.773 56.6541 479.772 58.6712C481.771 60.6884 483.351 63.0816 484.419 65.7126C485.488 68.3436 486.025 71.1603 486 74Z" stroke="#01012F" stroke-width="4"/>
<path d="M496.75 92.6242C496.775 95.4639 496.238 98.2806 495.169 100.912C494.1 103.543 492.521 105.936 490.522 107.953C488.523 109.97 486.144 111.571 483.523 112.664C480.902 113.757 478.09 114.319 475.25 114.319C472.41 114.319 469.599 113.757 466.977 112.664C464.356 111.571 461.977 109.97 459.978 107.953C457.98 105.936 456.4 103.543 455.331 100.912C454.262 98.2806 453.725 95.4639 453.751 92.6242C453.725 89.7844 454.262 86.9677 455.331 84.3367C456.4 81.7057 457.98 79.3125 459.978 77.2954C461.977 75.2782 464.356 73.677 466.977 72.5843C469.599 71.4916 472.41 70.929 475.25 70.929C478.09 70.929 480.902 71.4916 483.523 72.5843C486.144 73.677 488.523 75.2782 490.522 77.2954C492.521 79.3125 494.1 81.7057 495.169 84.3367C496.238 86.9677 496.775 89.7844 496.75 92.6242Z" stroke="#01012F" stroke-width="4"/>
<path d="M518.249 92.6242C518.275 95.4639 517.738 98.2806 516.669 100.912C515.6 103.543 514.021 105.936 512.022 107.953C510.023 109.97 507.644 111.571 505.023 112.664C502.401 113.757 499.59 114.319 496.75 114.319C493.91 114.319 491.098 113.757 488.477 112.664C485.856 111.571 483.477 109.97 481.478 107.953C479.479 105.936 477.9 103.543 476.831 100.912C475.762 98.2806 475.225 95.4639 475.25 92.6242C475.225 89.7844 475.762 86.9677 476.831 84.3367C477.9 81.7057 479.479 79.3125 481.478 77.2954C483.477 75.2782 485.856 73.677 488.477 72.5843C491.098 71.4916 493.91 70.929 496.75 70.929C499.59 70.929 502.401 71.4916 505.023 72.5843C507.644 73.677 510.023 75.2782 512.022 77.2954C514.021 79.3125 515.6 81.7057 516.669 84.3367C517.738 86.9677 518.275 89.7844 518.249 92.6242Z" stroke="#01012F" stroke-width="4"/>
<path d="M485.998 116.999C483.158 117.025 480.342 116.488 477.71 115.419C475.079 114.35 472.686 112.77 470.669 110.771C468.652 108.772 467.051 106.394 465.958 103.773C464.865 101.151 464.303 98.3396 464.303 95.4997C464.303 92.6598 464.865 89.8481 465.958 87.2269C467.051 84.6057 468.652 82.2269 470.669 80.228C472.686 78.229 475.079 76.6495 477.71 75.5806C480.342 74.5117 483.158 73.9746 485.998 74.0003C488.838 73.9746 491.654 74.5117 494.285 75.5806C496.916 76.6495 499.31 78.229 501.327 80.228C503.344 82.2269 504.945 84.6057 506.038 87.2269C507.131 89.8481 507.693 92.6598 507.693 95.4997C507.693 98.3396 507.131 101.151 506.038 103.773C504.945 106.394 503.344 108.772 501.327 110.771C499.31 112.77 496.916 114.35 494.285 115.419C491.654 116.488 488.838 117.025 485.998 116.999Z" stroke="#01012F" stroke-width="4"/>
<path d="M504.622 106.249C501.782 106.275 498.965 105.738 496.334 104.669C493.703 103.6 491.31 102.021 489.293 100.022C487.276 98.0226 485.674 95.6438 484.582 93.0226C483.489 90.4014 482.926 87.5897 482.926 84.7498C482.926 81.9099 483.489 79.0982 484.582 76.477C485.674 73.8558 487.276 71.477 489.293 69.4781C491.31 67.4791 493.703 65.8996 496.334 64.8306C498.965 63.7617 501.782 63.2247 504.622 63.2504C507.461 63.2247 510.278 63.7617 512.909 64.8306C515.54 65.8996 517.933 67.4791 519.95 69.4781C521.968 71.477 523.569 73.8558 524.661 76.477C525.754 79.0982 526.317 81.9099 526.317 84.7498C526.317 87.5897 525.754 90.4014 524.661 93.0226C523.569 95.6438 521.968 98.0226 519.95 100.022C517.933 102.021 515.54 103.6 512.909 104.669C510.278 105.738 507.461 106.275 504.622 106.249Z" stroke="#01012F" stroke-width="4"/>
<path d="M504.622 84.7496C501.782 84.7753 498.965 84.2383 496.334 83.1693C493.703 82.1004 491.31 80.5209 489.293 78.5219C487.276 76.523 485.674 74.1442 484.582 71.523C483.489 68.9018 482.926 66.0901 482.926 63.2502C482.926 60.4103 483.489 57.5986 484.582 54.9774C485.674 52.3562 487.276 49.9774 489.293 47.9785C491.31 45.9795 493.703 44.4 496.334 43.331C498.965 42.2621 501.782 41.7251 504.622 41.7508C507.461 41.7251 510.278 42.2621 512.909 43.331C515.54 44.4 517.933 45.9795 519.95 47.9785C521.968 49.9774 523.569 52.3562 524.661 54.9774C525.754 57.5986 526.317 60.4103 526.317 63.2502C526.317 66.0901 525.754 68.9018 524.661 71.523C523.569 74.1442 521.968 76.523 519.95 78.5219C517.933 80.5209 515.54 82.1004 512.909 83.1693C510.278 84.2383 507.461 84.7753 504.622 84.7496Z" stroke="#01012F" stroke-width="4"/>
<path d="M485.998 73.9997C483.158 74.0254 480.342 73.4883 477.71 72.4194C475.079 71.3505 472.686 69.771 470.669 67.772C468.652 65.7731 467.051 63.3943 465.958 60.7731C464.865 58.1519 464.303 55.3401 464.303 52.5003C464.303 49.6604 464.865 46.8487 465.958 44.2275C467.051 41.6063 468.652 39.2275 470.669 37.2285C472.686 35.2296 475.079 33.65 477.71 32.5811C480.342 31.5122 483.158 30.9751 485.998 31.0009C488.838 30.9751 491.654 31.5122 494.285 32.5811C496.916 33.65 499.31 35.2296 501.327 37.2285C503.344 39.2275 504.945 41.6063 506.038 44.2275C507.131 46.8487 507.693 49.6604 507.693 52.5003C507.693 55.3401 507.131 58.1519 506.038 60.7731C504.945 63.3943 503.344 65.7731 501.327 67.772C499.31 69.771 496.916 71.3505 494.285 72.4194C491.654 73.4883 488.838 74.0254 485.998 73.9997Z" stroke="#01012F" stroke-width="4"/>
<path d="M467.374 84.7496C464.534 84.7753 461.717 84.2383 459.086 83.1693C456.455 82.1004 454.062 80.5209 452.045 78.5219C450.028 76.523 448.427 74.1442 447.334 71.523C446.241 68.9018 445.679 66.0901 445.679 63.2502C445.679 60.4103 446.241 57.5986 447.334 54.9774C448.427 52.3562 450.028 49.9774 452.045 47.9785C454.062 45.9795 456.455 44.4 459.086 43.331C461.717 42.2621 464.534 41.7251 467.374 41.7508C470.214 41.7251 473.03 42.2621 475.661 43.331C478.292 44.4 480.685 45.9795 482.703 47.9785C484.72 49.9774 486.321 52.3562 487.414 54.9774C488.506 57.5986 489.069 60.4103 489.069 63.2502C489.069 66.0901 488.506 68.9018 487.414 71.523C486.321 74.1442 484.72 76.523 482.703 78.5219C480.685 80.5209 478.292 82.1004 475.661 83.1693C473.03 84.2383 470.214 84.7753 467.374 84.7496Z" stroke="#01012F" stroke-width="4"/>
<path d="M467.374 106.249C464.534 106.275 461.717 105.738 459.086 104.669C456.455 103.6 454.062 102.021 452.045 100.022C450.028 98.0226 448.427 95.6438 447.334 93.0226C446.241 90.4014 445.679 87.5897 445.679 84.7498C445.679 81.9099 446.241 79.0982 447.334 76.477C448.427 73.8558 450.028 71.477 452.045 69.4781C454.062 67.4791 456.455 65.8996 459.086 64.8306C461.717 63.7617 464.534 63.2247 467.374 63.2504C470.214 63.2247 473.03 63.7617 475.661 64.8306C478.292 65.8996 480.685 67.4791 482.703 69.4781C484.72 71.477 486.321 73.8558 487.414 76.477C488.506 79.0982 489.069 81.9099 489.069 84.7498C489.069 87.5897 488.506 90.4014 487.414 93.0226C486.321 95.6438 484.72 98.0226 482.703 100.022C480.685 102.021 478.292 103.6 475.661 104.669C473.03 105.738 470.214 106.275 467.374 106.249Z" stroke="#01012F" stroke-width="4"/>
<path d="M507.498 73.9983C507.523 76.8379 506.986 79.6545 505.917 82.2855C504.849 84.9164 503.269 87.3095 501.27 89.3266C499.271 91.3437 496.893 92.9448 494.271 94.0375C491.65 95.1302 488.839 95.6928 485.999 95.6928C483.159 95.6928 480.347 95.1302 477.726 94.0375C475.105 92.9448 472.726 91.3437 470.728 89.3266C468.729 87.3095 467.149 84.9164 466.08 82.2855C465.011 79.6545 464.474 76.8379 464.5 73.9983C464.474 71.1586 465.011 68.342 466.08 65.7111C467.149 63.0801 468.729 60.687 470.728 58.6699C472.726 56.6528 475.105 55.0517 477.726 53.959C480.347 52.8664 483.159 52.3038 485.999 52.3038C488.839 52.3038 491.65 52.8664 494.271 53.959C496.893 55.0517 499.271 56.6528 501.27 58.6699C503.269 60.687 504.849 63.0801 505.917 65.7111C506.986 68.342 507.523 71.1586 507.498 73.9983Z" stroke="#01012F" stroke-width="4"/>
</svg>
