<svg width="407" height="89" viewBox="0 0 407 89" fill="none" xmlns="http://www.w3.org/2000/svg">
<path d="M3.73438 58.8906H5.53125C5.89583 65.5573 8.57812 71.0521 13.5781 75.375C18.474 79.6458 24.099 81.7812 30.4531 81.7812C35.349 81.7812 39.3333 80.401 42.4062 77.6406C45.4792 74.8802 47.0156 71.5729 47.0156 67.7188C47.0156 63.6562 45.5312 60.5052 42.5625 58.2656C39.6979 56.0781 34.0469 53.6042 25.6094 50.8438C18.8385 48.6042 14.0208 46.7552 11.1562 45.2969C7.82292 43.5781 5.21875 41.2604 3.34375 38.3438C1.3125 35.375 0.296875 32.0417 0.296875 28.3438C0.296875 24.2292 1.67708 20.1927 4.4375 16.2344C3.8125 18.2656 3.5 20.0365 3.5 21.5469C3.5 25.6094 4.46354 29.1771 6.39062 32.25C8.36979 35.4271 10.8177 37.8229 13.7344 39.4375C16.651 41.1042 21.5208 43.0052 28.3438 45.1406C37.25 47.849 43.6823 50.8438 47.6406 54.125C51.4427 57.3021 53.3438 61.5729 53.3438 66.9375C53.3438 72.1979 51.3646 76.9635 47.4062 81.2344C43.3958 85.5573 37.4062 87.7188 29.4375 87.7188C26.2083 87.7188 21.7292 87.1198 16 85.9219C11 84.8802 7.25 84.3333 4.75 84.2812L4.20312 83.6562C4.25521 82.7708 4.28125 81.625 4.28125 80.2188C4.28125 78.5521 4.125 75.974 3.8125 72.4844C3.55208 68.9948 3.42188 66.3906 3.42188 64.6719C3.42188 62.4323 3.52604 60.5052 3.73438 58.8906ZM58.8906 26.2344H57.25C57.1979 20.1927 54.8021 15.7135 50.0625 12.7969C45.4271 9.93229 39.8021 8.5 33.1875 8.5C27.9271 8.5 23.6042 9.61979 20.2188 11.8594C16.7812 14.099 15.0625 16.7812 15.0625 19.9062C15.0625 23.2396 16.4167 25.8698 19.125 27.7969C21.9375 29.8802 27.4844 32.3542 35.7656 35.2188C43.474 37.875 48.8646 40.0365 51.9375 41.7031C55.2188 43.526 57.9531 46.1302 60.1406 49.5156C62.3281 53.0052 63.4219 56.8854 63.4219 61.1562C63.4219 67.6667 61.026 72.7708 56.2344 76.4688C58.0052 74.0208 58.8906 70.5833 58.8906 66.1562C58.8906 61.9896 57.9271 58.2917 56 55.0625C53.9688 51.7812 51.4688 49.1771 48.5 47.25C45.4792 45.2708 40.5573 43.1615 33.7344 40.9219C23.474 37.5365 16.7812 34.6458 13.6562 32.25C10.5312 29.8021 8.96875 26 8.96875 20.8438C8.96875 14.9062 11.3646 10.2448 16.1562 6.85938C20.9479 3.57812 27.7448 1.9375 36.5469 1.9375C42.5365 1.9375 49.8542 2.97917 58.5 5.0625V5.60938L58.6562 8.57812C58.6562 10.1406 58.7083 12.0156 58.8125 14.2031C58.9688 16.8594 59.0469 19.2031 59.0469 21.2344C59.0469 22.5885 58.9948 24.2552 58.8906 26.2344ZM150.844 77.9531C156.521 70.2448 159.359 58.6302 159.359 43.1094C159.359 29.4115 156.547 18.7344 150.922 11.0781C161.651 17.4844 167.016 28.4479 167.016 43.9688C167.016 59.2812 161.625 70.6094 150.844 77.9531ZM87.875 11C82.1458 19.8542 79.2812 31.1823 79.2812 44.9844C79.2812 57.4844 82.0156 68.3177 87.4844 77.4844C76.9635 70.5573 71.7031 59.4635 71.7031 44.2031C71.7031 28.526 77.0938 17.4583 87.875 11ZM146.312 44.5156C146.312 19.5677 137.25 7.09375 119.125 7.09375C101.365 7.09375 92.4844 19.8802 92.4844 45.4531C92.4844 69.5156 101.469 81.5469 119.438 81.5469C137.354 81.5469 146.312 69.2031 146.312 44.5156ZM153.656 44.4375C153.656 54.0208 152.198 62.1198 149.281 68.7344C146.417 75.2969 142.38 80.1406 137.172 83.2656C132.068 86.4427 126.104 88.0312 119.281 88.0312C108.448 88.0312 100.062 84.151 94.125 76.3906C88.1875 68.6302 85.2188 57.9531 85.2188 44.3594C85.2188 30.2448 88.2396 19.4115 94.2812 11.8594C100.323 4.41146 108.604 0.6875 119.125 0.6875C129.802 0.6875 138.24 4.41146 144.438 11.8594C150.583 19.2552 153.656 30.1146 153.656 44.4375ZM202.25 86H199.125V3.65625H218.5C224.125 3.65625 231.547 3.34375 240.766 2.71875C240.714 4.07292 240.688 5.84375 240.688 8.03125C240.688 9.28125 240.766 11.625 240.922 15.0625C241.078 18.8646 241.156 20.8438 241.156 21V23.0312H239.516C238.057 13.6562 233.63 8.96875 226.234 8.96875H211.078C209.359 8.96875 207.823 9.20312 206.469 9.67188C205.792 13.7865 205.453 19.2812 205.453 26.1562V42.3281H219.125C225.01 42.3281 229.307 41.599 232.016 40.1406C234.672 38.7344 236.391 36.2083 237.172 32.5625H238.891C238.526 38.1875 238.344 42.0677 238.344 44.2031C238.344 45.5052 238.422 47.7188 238.578 50.8438C238.786 53.8125 238.891 55.9479 238.891 57.25V59.8281H237.172C236.911 51.599 232.51 47.4844 223.969 47.4844H205.453V65.6094C205.453 77.3802 209.047 84.0208 216.234 85.5312V86.9375C208.839 86.3125 204.177 86 202.25 86ZM193.109 3.65625V86C188.526 86 183.057 86.3125 176.703 86.9375V85.5312C180.297 84.4375 182.875 82.224 184.438 78.8906C186 75.6094 186.781 70.2448 186.781 62.7969V24.2031C186.781 17.1198 185.844 12.1719 183.969 9.35938C182.042 6.59896 179.62 4.88021 176.703 4.20312V2.71875C182.276 3.1875 187.745 3.5 193.109 3.65625ZM274.984 86V3.65625C281.443 3.65625 287.172 3.34375 292.172 2.71875V4.125C289.099 4.69792 286.547 6.36458 284.516 9.125C282.432 11.9896 281.391 17.901 281.391 26.8594V64.125C281.391 72.1458 282.484 77.5365 284.672 80.2969C286.859 83.0573 289.359 84.8021 292.172 85.5312V86.9375C287.276 86.3125 281.547 86 274.984 86ZM269.125 3.65625V86C265.375 86 259.672 86.3125 252.016 86.9375V85.5312C256.026 84.4896 258.812 82.224 260.375 78.7344C261.938 75.2969 262.719 69.0729 262.719 60.0625V25.1406C262.719 18.3698 261.911 13.3958 260.297 10.2188C258.682 7.09375 255.922 5.0625 252.016 4.125V2.71875C258.37 3.23958 264.073 3.55208 269.125 3.65625ZM390.531 86L351.078 3.65625H358.734C359.776 6.36458 361.234 9.77604 363.109 13.8906C365.193 18.3177 366.365 20.9479 366.625 21.7812C366.885 22.25 367.12 22.7969 367.328 23.4219L385.688 61.4688C392.094 74.6979 398.917 82.7188 406.156 85.5312V86.9375C399.073 86.3125 393.865 86 390.531 86ZM334.75 46.7031H358.344L347.016 22.9531L334.75 46.7031ZM368.109 67.0938L361.156 52.5625H331.703L324.281 67.0938C324.281 67.0938 324.151 67.4323 323.891 68.1094C323.839 68.1615 323.448 68.9167 322.719 70.375C321.625 72.5625 321.078 74.8021 321.078 77.0938C321.078 81.0521 323.266 83.8646 327.641 85.5312V86.9375C326.755 86.9375 325.219 86.8073 323.031 86.5469C319.958 86.1823 317.198 86 314.75 86C312.51 86 309.75 86.1823 306.469 86.5469C304.229 86.8073 302.745 86.9375 302.016 86.9375V85.5312C307.745 82.6146 312.953 76.599 317.641 67.4844L343.578 17.0156C341.599 13.0052 338.865 9.90625 335.375 7.71875C331.938 5.53125 327.901 4.33333 323.266 4.125V2.71875H326C328.448 2.71875 331.807 2.875 336.078 3.1875C340.557 3.5 343.474 3.65625 344.828 3.65625L384.281 86C379.229 86.1042 373.161 86.4167 366.078 86.9375V85.5312C370.036 84.8542 372.016 82.7188 372.016 79.125C372.016 76.4688 370.714 72.4583 368.109 67.0938Z" fill="white"/>
</svg>
